<svg xmlns="http://www.w3.org/2000/svg" viewBox="0 0 100 41">
  <path d="M 1.67,0.67 0.00,3.12 0.56,39.02 3.90,40.91 18.51,40.80 28.32,37.01 33.89,30.99 36.57,23.75 36.23,15.38 32.66,8.03 20.62,0.33 Z M 10.70,8.36 20.85,8.92 27.76,15.83 27.98,24.41 21.63,31.55 11.37,32.66 8.36,30.10 8.14,11.48 Z" fill="#9e9d9e"/>
  <path d="M 95.21,2.56 87.40,0.00 64.10,1.34 63.10,4.79 65.66,7.92 88.07,8.25 91.75,11.48 88.74,15.61 66.33,15.83 63.88,17.39 63.10,37.46 64.77,40.13 70.68,39.02 71.24,27.54 73.24,24.53 89.74,23.63 97.66,19.06 99.78,9.59 Z" fill="#706f71"/>
  <path d="M 39.24,15.94 37.57,19.19 47.49,29.49 47.49,39.01 50.95,40.80 52.40,29.49 62.32,17.51 58.75,16.17 49.94,24.90 Z" fill="#f07e02"/>
</svg>