<svg xmlns="http://www.w3.org/2000/svg" viewBox="0 0 1506 1094">
  <path d="M 1067,717 1065,720 1066,739 1071,739 1071,726 1075,721 1078,721 1080,723 1080,737 1082,740 1085,740 1085,720 1082,717 1075,717 1072,719 1070,717 Z" fill="rgb(127,125,126)" fill-opacity="0.7" stroke="rgb(127,125,126)" stroke-width="3"/>
  <text x="1067" y="717" font-size="16" fill="red">0</text>
  <path d="M 1043,718 1038,724 1039,735 1045,740 1056,739 1061,731 1061,725 1059,721 1054,717 Z" fill="rgb(158,156,157)" fill-opacity="0.7" stroke="rgb(158,156,157)" stroke-width="3"/>
  <text x="1043" y="718" font-size="16" fill="red">1</text>
  <path d="M 822,717 818,718 813,732 811,731 807,718 802,718 803,724 809,738 809,742 805,745 803,744 801,746 802,748 811,748 813,746 823,721 Z" fill="rgb(125,123,124)" fill-opacity="0.7" stroke="rgb(125,123,124)" stroke-width="3"/>
  <text x="822" y="717" font-size="16" fill="red">2</text>
  <path d="M 770,718 765,724 766,735 772,740 783,739 788,731 788,725 786,721 781,717 Z" fill="rgb(158,157,157)" fill-opacity="0.7" stroke="rgb(158,157,157)" stroke-width="3"/>
  <text x="770" y="718" font-size="16" fill="red">3</text>
  <path d="M 687,717 686,739 690,740 692,738 692,724 695,721 699,721 701,724 701,739 705,740 707,738 706,720 703,717 695,717 692,720 690,717 Z" fill="rgb(128,127,128)" fill-opacity="0.7" stroke="rgb(128,127,128)" stroke-width="3"/>
  <text x="687" y="717" font-size="16" fill="red">4</text>
  <path d="M 665,717 659,723 659,734 662,738 666,740 674,740 681,733 681,724 674,717 Z" fill="rgb(158,156,157)" fill-opacity="0.7" stroke="rgb(158,156,157)" stroke-width="3"/>
  <text x="665" y="717" font-size="16" fill="red">5</text>
  <path d="M 557,717 556,739 561,739 562,724 565,721 568,721 571,726 571,739 575,740 575,719 572,717 565,717 562,719 560,717 Z" fill="rgb(120,118,119)" fill-opacity="0.7" stroke="rgb(120,118,119)" stroke-width="3"/>
  <text x="557" y="717" font-size="16" fill="red">6</text>
  <path d="M 533,718 528,725 529,735 536,740 546,739 551,732 550,722 544,717 Z" fill="rgb(158,156,157)" fill-opacity="0.7" stroke="rgb(158,156,157)" stroke-width="3"/>
  <text x="533" y="718" font-size="16" fill="red">7</text>
  <path d="M 1007,717 1001,722 1001,735 1007,740 1016,740 1021,736 1022,732 1018,731 1015,735 1010,736 1006,732 1006,725 1010,721 1014,721 1019,726 1022,723 1016,717 Z" fill="rgb(126,124,125)" fill-opacity="0.7" stroke="rgb(126,124,125)" stroke-width="3"/>
  <text x="1007" y="717" font-size="16" fill="red">8</text>
  <path d="M 990,717 981,717 975,722 974,732 975,735 981,740 992,739 996,734 995,731 992,731 989,735 984,736 980,732 980,725 984,721 988,721 993,726 995,725 995,721 Z" fill="rgb(126,124,125)" fill-opacity="0.7" stroke="rgb(126,124,125)" stroke-width="3"/>
  <text x="990" y="717" font-size="16" fill="red">9</text>
  <path d="M 952,718 949,721 950,725 952,725 956,721 962,721 963,724 961,726 951,728 948,731 949,738 952,740 959,740 962,738 969,740 970,736 968,720 965,717 960,716 Z" fill="rgb(139,137,138)" fill-opacity="0.7" stroke="rgb(139,137,138)" stroke-width="3"/>
  <text x="952" y="718" font-size="16" fill="red">10</text>
  <path d="M 915,717 911,719 908,724 908,733 915,740 924,740 929,736 928,732 922,736 917,736 914,733 914,731 927,730 930,728 930,724 928,720 924,717 Z" fill="rgb(139,138,139)" fill-opacity="0.7" stroke="rgb(139,138,139)" stroke-width="3"/>
  <text x="915" y="717" font-size="16" fill="red">11</text>
  <path d="M 872,719 872,725 874,725 878,721 884,721 885,724 883,726 873,728 870,731 870,737 874,740 881,740 885,737 888,740 891,740 892,736 890,720 887,717 881,716 Z" fill="rgb(139,138,139)" fill-opacity="0.7" stroke="rgb(139,138,139)" stroke-width="3"/>
  <text x="872" y="719" font-size="16" fill="red">12</text>
  <path d="M 715,718 712,722 714,725 716,725 719,721 725,721 727,724 725,726 713,729 711,733 712,737 716,740 723,740 727,737 730,740 732,740 734,738 732,720 728,717 723,716 Z" fill="rgb(140,139,140)" fill-opacity="0.7" stroke="rgb(140,139,140)" stroke-width="3"/>
  <text x="715" y="718" font-size="16" fill="red">13</text>
  <path d="M 637,717 627,717 623,720 620,729 621,734 624,738 628,740 636,740 641,737 641,731 639,731 634,736 631,736 627,733 626,726 630,721 634,721 639,726 642,724 641,720 Z" fill="rgb(125,123,124)" fill-opacity="0.7" stroke="rgb(125,123,124)" stroke-width="3"/>
  <text x="637" y="717" font-size="16" fill="red">14</text>
  <path d="M 509,717 504,721 502,725 503,735 507,739 518,740 523,736 524,732 520,731 517,735 512,736 508,732 508,725 512,721 516,721 521,726 524,723 518,717 Z" fill="rgb(125,123,124)" fill-opacity="0.7" stroke="rgb(125,123,124)" stroke-width="3"/>
  <text x="509" y="717" font-size="16" fill="red">15</text>
  <path d="M 449,717 440,717 434,723 434,733 436,737 441,740 449,740 455,736 455,733 453,732 448,736 443,736 439,731 455,729 455,722 Z" fill="rgb(140,139,140)" fill-opacity="0.7" stroke="rgb(140,139,140)" stroke-width="3"/>
  <text x="449" y="717" font-size="16" fill="red">16</text>
  <path d="M 947,708 938,709 936,712 936,716 932,718 932,720 936,722 937,740 940,740 942,737 942,722 946,720 946,718 942,716 942,713 948,712 Z" fill="rgb(128,127,128)" fill-opacity="0.7" stroke="rgb(128,127,128)" stroke-width="3"/>
  <text x="947" y="708" font-size="16" fill="red">17</text>
  <path d="M 849,708 844,710 840,714 838,718 838,730 845,739 857,740 864,735 865,728 862,727 859,732 855,735 849,735 844,729 844,720 846,716 850,713 857,714 862,720 865,719 865,715 859,709 Z" fill="rgb(123,122,123)" fill-opacity="0.7" stroke="rgb(123,122,123)" stroke-width="3"/>
  <text x="849" y="708" font-size="16" fill="red">18</text>
  <path d="M 759,708 755,709 754,719 751,717 743,717 739,721 737,730 739,736 742,739 750,740 754,737 756,740 760,739 Z" fill="rgb(151,150,150)" fill-opacity="0.7" stroke="rgb(151,150,150)" stroke-width="3"/>
  <text x="759" y="708" font-size="16" fill="red">19</text>
  <path d="M 602,708 598,710 597,719 595,717 587,717 583,720 581,724 582,735 587,740 594,740 597,738 602,740 604,738 604,710 Z" fill="rgb(153,152,152)" fill-opacity="0.7" stroke="rgb(153,152,152)" stroke-width="3"/>
  <text x="602" y="708" font-size="16" fill="red">20</text>
  <path d="M 482,708 475,722 470,735 470,739 474,740 478,732 490,732 493,739 497,740 499,736 489,711 486,708 Z" fill="rgb(135,133,134)" fill-opacity="0.7" stroke="rgb(135,133,134)" stroke-width="3"/>
  <text x="482" y="708" font-size="16" fill="red">21</text>
  <path d="M 384,708 380,713 371,738 375,740 380,732 391,732 394,738 398,740 400,738 400,735 389,709 Z" fill="rgb(134,132,133)" fill-opacity="0.7" stroke="rgb(134,132,133)" stroke-width="3"/>
  <text x="384" y="708" font-size="16" fill="red">22</text>
  <path d="M 340,687 340,693 1121,693 1121,687 Z" fill="rgb(9,129,240)" fill-opacity="0.7" stroke="rgb(9,129,240)" stroke-width="3"/>
  <text x="340" y="687" font-size="16" fill="red">23</text>
  <path d="M 635,445 623,454 619,464 620,474 623,480 709,566 709,651 714,661 722,667 740,667 749,660 753,652 753,566 839,480 843,471 842,459 833,448 827,445 815,445 810,447 731,525 654,448 648,445 Z" fill="rgb(2,126,240)" fill-opacity="0.7" stroke="rgb(2,126,240)" stroke-width="3"/>
  <text x="635" y="445" font-size="16" fill="red">24</text>
  <path d="M 1137,325 1119,315 1100,308 1067,302 879,302 866,307 858,314 850,328 849,345 851,352 858,363 866,370 879,375 1073,376 1083,378 1094,383 1102,391 1106,405 1105,420 1100,430 1092,437 1079,442 1064,444 878,444 866,449 856,458 849,474 849,638 855,653 864,662 876,668 894,668 906,663 917,652 922,639 922,549 927,535 940,522 955,517 1068,517 1088,514 1109,508 1132,497 1151,482 1159,473 1172,451 1177,435 1179,423 1178,388 1172,367 1166,355 1158,344 Z" fill="rgb(113,111,112)" fill-opacity="0.7" stroke="rgb(113,111,112)" stroke-width="3"/>
  <text x="1137" y="325" font-size="16" fill="red">25</text>
  <path d="M 297,308 288,317 282,330 282,640 287,652 298,663 310,668 317,669 448,668 467,665 494,657 514,648 536,634 551,622 565,608 586,580 600,552 606,534 610,515 612,497 612,473 607,440 597,411 586,390 575,374 552,349 524,328 499,315 467,305 447,302 310,302 Z" fill="rgb(158,157,158)" fill-opacity="0.7" stroke="rgb(158,157,158)" stroke-width="3"/>
  <text x="297" y="308" font-size="16" fill="red">26</text>
  <path d="M 378,377 385,375 440,375 453,377 469,382 483,389 502,403 518,421 531,444 538,472 538,498 533,521 524,540 512,557 495,573 476,585 461,591 441,595 384,595 369,588 362,581 357,572 355,565 355,405 357,398 363,388 369,382 Z" fill="white" fill-opacity="0.7" stroke="white" stroke-width="3"/>
  <text x="378" y="377" font-size="16" fill="red">27</text>
</svg>