<svg xmlns="http://www.w3.org/2000/svg" viewBox="0 0 897 368">
  <rect width="897" height="368" fill="white"/>
  <path d="M 15.0,6.0 0.0,28.0 5.0,350.0 35.0,367.0 166.0,366.0 254.0,332.0 304.0,278.0 328.0,213.0 325.0,138.0 293.0,72.0 185.0,3.0 Z M 96.0,75.0 187.0,80.0 249.0,142.0 251.0,219.0 194.0,283.0 102.0,293.0 75.0,270.0 73.0,103.0 Z" fill="#9e9d9e"/>
  <path d="M 854.0,23.0 784.0,0.0 575.0,12.0 566.0,43.0 589.0,71.0 790.0,74.0 823.0,103.0 796.0,140.0 595.0,142.0 573.0,156.0 566.0,336.0 581.0,360.0 634.0,350.0 639.0,247.0 657.0,220.0 805.0,212.0 876.0,171.0 895.0,86.0 Z" fill="#706f71"/>
  <path d="M 352.0,143.0 337.0,172.1 426.0,264.5 426.0,349.9 457.0,366.0 470.0,264.5 559.0,157.1 527.0,145.0 448.0,223.4 Z" fill="#f07e02"/>
  <rect x="0" y="0" width="331" height="368" fill="none" stroke="red" stroke-dasharray="4,4" stroke-width="2"/>
  <rect x="336" y="143" width="225" height="225" fill="none" stroke="red" stroke-dasharray="4,4" stroke-width="2"/>
  <rect x="566" y="0" width="331" height="368" fill="none" stroke="red" stroke-dasharray="4,4" stroke-width="2"/>
</svg>