<svg xmlns="http://www.w3.org/2000/svg" viewBox="0 0 1506 1094">
  <rect width="1506" height="1094" fill="white"/>
  <!-- (282,302) 331x368 -->
  <path d="M 297,308 282,330 287,652 317,669 448,668 536,634 586,580 610,515 607,440 575,374 467,305 Z M 378,377 469,382 531,444 533,521 476,585 384,595 357,572 355,405 Z" fill="#9e9d9e" fill-opacity="1" stroke="none"/>
  <!-- (849,302) 331x368 -->
  <path d="M 1137,325 1067,302 858,314 849,345 872,373 1073,376 1106,405 1079,442 878,444 856,458 849,638 864,662 917,652 922,549 940,522 1088,514 1159,473 1178,388 Z" fill="#706f71" fill-opacity="1" stroke="none"/>
  <!-- (619,445) 225x224 -->
  <path d="M 635,445 620,474 709,566 709,651 740,667 753,566 842,459 810,447 731,525 Z" fill="#f07e02" fill-opacity="1" stroke="none"/>
</svg>