<svg xmlns="http://www.w3.org/2000/svg" viewBox="0 0 1506 [11  8 -1 -1]">
  <rect width="1506" height="[11  8 -1 -1]" fill="white"/>
  <!-- D (probable) area=106137.0 pos=(282,302) size=331x368 -->
  <path d="M 297,308 288,317 284,324 284,326 282,330 282,640 283,641 284,646 287,652 298,663 304,666 309,667 310,668 316,668 317,669 432,669 433,668 448,668 449,667 456,667 457,666 467,665 468,664 471,664 472,663 479,662 480,661 482,661 483,660 485,660 486,659 494,657 497,655 499,655 504,652 506,652 514,648 516,646 521,644 523,642 529,639 532,636 536,634 544,627 545,627 550,622 551,622 565,608 565,607 575,596 575,595 578,592 578,591 586,580 600,552 600,550 601,549 601,547 602,546 602,544 603,543 603,541 604,540 604,538 606,534 607,526 608,525 608,522 609,521 609,516 610,515 610,509 611,508 611,498 612,497 612,473 611,472 611,462 610,461 610,455 609,454 609,450 608,449 607,440 605,436 605,433 604,432 604,430 603,429 603,427 602,426 600,418 597,413 597,411 590,397 588,395 586,390 584,388 580,381 577,378 575,374 565,363 565,362 552,349 551,349 540,339 539,339 536,336 535,336 524,328 514,323 512,321 508,319 506,319 499,315 497,315 494,313 492,313 491,312 489,312 488,311 486,311 485,310 483,310 479,308 476,308 475,307 472,307 471,306 468,306 467,305 457,304 456,303 448,303 447,302 310,302 309,303 304,304 Z M 378,377 384,376 385,375 440,375 441,376 448,376 449,377 453,377 454,378 457,378 458,379 460,379 461,380 469,382 483,389 485,391 492,395 495,398 496,398 501,403 502,403 510,411 510,412 518,421 518,422 524,430 531,444 531,446 532,447 532,449 533,450 533,452 535,456 536,464 537,465 537,471 538,472 538,498 537,499 537,505 536,506 536,510 535,511 535,514 533,518 533,521 531,524 531,526 524,540 522,542 519,548 512,556 512,557 500,569 499,569 495,573 494,573 491,576 490,576 485,580 478,583 476,585 474,585 469,588 467,588 461,591 458,591 457,592 454,592 453,593 449,593 448,594 442,594 441,595 384,595 383,594 380,594 369,588 362,581 357,572 356,566 355,565 355,405 356,404 357,398 360,392 363,389 363,388 369,382 Z" fill="#9e9d9e" fill-opacity="0.9" stroke="none"/>
  <rect x="282" y="302" width="331" height="368" fill="none" stroke="red" stroke-width="3" stroke-dasharray="8,8"/>
  <text x="282" y="292" font-size="24" fill="red" font-weight="bold">D (probable) (331x368)</text>
  <!-- P (probable) area=58607.0 pos=(849,302) size=331x368 -->
  <path d="M 1137,325 1119,315 1117,315 1114,313 1112,313 1109,311 1107,311 1106,310 1104,310 1100,308 1097,308 1096,307 1093,307 1092,306 1089,306 1088,305 1083,305 1082,304 1077,304 1076,303 1068,303 1067,302 879,302 878,303 872,304 866,307 858,314 858,315 853,321 851,325 851,327 850,328 850,332 849,333 849,345 850,346 851,352 855,359 858,362 858,363 866,370 872,373 878,374 879,375 1062,375 1063,376 1073,376 1074,377 1079,377 1080,378 1083,378 1094,383 1102,391 1104,395 1104,398 1105,399 1105,404 1106,405 1106,413 1105,414 1105,420 1100,430 1092,437 1086,440 1080,441 1079,442 1074,442 1073,443 1065,443 1064,444 878,444 877,445 872,446 866,449 864,451 863,451 856,458 851,467 850,473 849,474 849,638 850,639 851,645 855,653 864,662 876,668 880,668 881,669 888,669 889,668 894,668 895,667 900,666 906,663 909,660 910,660 917,652 920,646 921,640 922,639 922,549 923,548 923,544 924,543 924,541 927,535 930,532 930,531 937,524 938,524 940,522 946,519 954,518 955,517 1068,517 1069,516 1077,516 1078,515 1088,514 1089,513 1092,513 1093,512 1096,512 1097,511 1100,511 1101,510 1109,508 1119,503 1121,503 1125,501 1127,499 1132,497 1134,495 1138,493 1142,489 1143,489 1150,482 1151,482 1152,480 1159,473 1159,472 1162,469 1162,468 1166,463 1172,451 1172,449 1174,446 1174,443 1176,439 1176,436 1177,435 1177,431 1178,430 1178,424 1179,423 1179,395 1178,394 1178,388 1177,387 1177,383 1176,382 1176,379 1175,378 1175,376 1174,375 1172,367 1166,355 1158,345 1158,344 1146,332 1145,332 Z" fill="#706f71" fill-opacity="0.9" stroke="none"/>
  <rect x="849" y="302" width="331" height="368" fill="none" stroke="red" stroke-width="3" stroke-dasharray="8,8"/>
  <text x="849" y="292" font-size="24" fill="red" font-weight="bold">P (probable) (331x368)</text>
  <!-- Y (probable) area=16673.0 pos=(619,445) size=225x224 -->
  <path d="M 635,445 628,449 623,454 620,460 620,463 619,464 619,470 620,471 620,474 623,480 709,566 709,651 714,661 722,667 724,667 725,668 737,668 738,667 740,667 744,664 745,664 749,660 753,652 753,566 839,480 839,479 842,475 842,472 843,471 843,463 842,462 842,459 840,455 833,448 827,445 815,445 814,446 810,447 808,449 807,449 731,525 654,448 648,445 Z" fill="#f07e02" fill-opacity="0.9" stroke="none"/>
  <rect x="619" y="445" width="225" height="224" fill="none" stroke="red" stroke-width="3" stroke-dasharray="8,8"/>
  <text x="619" y="435" font-size="24" fill="red" font-weight="bold">Y (probable) (225x224)</text>
</svg>